<?xml version="1.0" encoding="UTF-8" standalone="no"?>
<svg
   xmlns:dc="http://purl.org/dc/elements/1.1/"
   xmlns:cc="http://creativecommons.org/ns#"
   xmlns:rdf="http://www.w3.org/1999/02/22-rdf-syntax-ns#"
   xmlns:svg="http://www.w3.org/2000/svg"
   xmlns="http://www.w3.org/2000/svg"
   xmlns:sodipodi="http://sodipodi.sourceforge.net/DTD/sodipodi-0.dtd"
   xmlns:inkscape="http://www.inkscape.org/namespaces/inkscape"
   width="24"
   height="24"
   viewBox="0 0 24 24"
   id="svg2"
   version="1.1"
   inkscape:version="0.91 r13725"
   sodipodi:docname="iconmonstr-hexagon-2.svg">
  <metadata
     id="metadata10">
    <rdf:RDF>
      <cc:Work
         rdf:about="">
        <dc:format>image/svg+xml</dc:format>
        <dc:type
           rdf:resource="http://purl.org/dc/dcmitype/StillImage" />
      </cc:Work>
    </rdf:RDF>
  </metadata>
  <defs
     id="defs8" />
  <sodipodi:namedview
     pagecolor="#ffffff"
     bordercolor="#666666"
     borderopacity="1"
     objecttolerance="10"
     gridtolerance="10"
     guidetolerance="10"
     inkscape:pageopacity="0"
     inkscape:pageshadow="2"
     inkscape:window-width="855"
     inkscape:window-height="767"
     id="namedview6"
     showgrid="false"
     inkscape:zoom="9.8333333"
     inkscape:cx="12"
     inkscape:cy="16.067797"
     inkscape:window-x="994"
     inkscape:window-y="207"
     inkscape:window-maximized="0"
     inkscape:current-layer="svg2" />
  <path
     d="M16.839 4l4.857 8.5-4.857 8.5h-9.678l-4.857-8.5 4.857-8.5h9.678zm1.161-2h-12l-6 10.5 6 10.5h12l6-10.5-6-10.5z"
     id="path4" />
  <path
     style="opacity:0.95999995;fill:#999999;fill-opacity:1"
     d="m 4.8084745,16.779272 c -1.3097457,-2.304745 -2.3809017,-4.23827 -2.3803467,-4.296723 5.55e-4,-0.05845 1.0669388,-1.971108 2.3697418,-4.2503456 l 2.3687328,-4.1440678 4.8421226,0.00343 4.842122,0.00343 2.364407,4.1540347 c 1.300424,2.2847192 2.364407,4.1999932 2.364407,4.2561642 0,0.05617 -1.069216,1.972175 -2.376037,4.257787 l -2.376037,4.155658 -4.818878,0.02554 -4.8188785,0.02553 -2.381356,-4.190444 z"
     id="path4156"
     inkscape:connector-curvature="0" />
  <path
     style="opacity:0.95999995;fill:#333333;fill-opacity:1"
     d="m 5.8803949,22.672881 c -0.4629751,-0.73244 -5.758361,-10.083644 -5.758361,-10.168778 0,-0.05658 1.3304466,-2.430941 2.9565479,-5.2763658 l 2.956548,-5.1734999 5.9714762,0 5.971478,0 2.944856,5.1503226 c 1.619671,2.8326771 2.959932,5.1889201 2.978357,5.2360951 0.01843,0.04718 -1.30058,2.420208 -2.931124,5.273406 l -2.964625,5.187634 -5.99026,0 -5.9902603,0 -0.1446328,-0.228814 z M 19.278037,16.837093 c 1.499699,-2.624077 2.401662,-4.303632 2.372024,-4.416968 -0.0263,-0.10058 -1.108786,-2.039306 -2.405519,-4.3082792 l -2.357697,-4.1254051 -4.899354,0.00325 -4.8993554,0.00325 -2.4222807,4.2573599 -2.4222805,4.2573595 2.0538801,3.595318 c 1.1296341,1.977424 2.2331196,3.904215 2.4521901,4.281758 l 0.39831,0.68644 4.8551174,0 4.855119,0 2.419846,-4.234093 z"
     id="path4158"
     inkscape:connector-curvature="0" />
  <path
     style="opacity:0.95999995;fill:#333333;fill-opacity:1"
     d="M 5.9001403,22.647458 C 5.8364292,22.507627 5.7550782,22.39322 5.71936,22.39322 c -0.035718,0 -0.12286,-0.160169 -0.1936488,-0.355932 -0.070789,-0.195763 -0.1623141,-0.355932 -0.2033898,-0.355932 -0.041076,0 -0.1326011,-0.16017 -0.2033899,-0.355932 -0.070789,-0.195763 -0.1623141,-0.355932 -0.2033898,-0.355932 -0.041076,0 -0.132601,-0.16017 -0.2033898,-0.355933 -0.070789,-0.195762 -0.1623142,-0.355932 -0.2033899,-0.355932 -0.041076,0 -0.132601,-0.160169 -0.2033898,-0.355932 -0.070789,-0.195763 -0.1623141,-0.355932 -0.2033898,-0.355932 -0.041076,0 -0.132601,-0.16017 -0.2033899,-0.355932 -0.070789,-0.195763 -0.1623141,-0.355933 -0.2033898,-0.355933 -0.041076,0 -0.132601,-0.160169 -0.2033898,-0.355932 -0.070789,-0.195763 -0.1623142,-0.355932 -0.2033898,-0.355932 -0.041076,0 -0.1326011,-0.16017 -0.2033899,-0.355932 -0.070789,-0.195763 -0.1623141,-0.355933 -0.2033898,-0.355933 -0.041076,0 -0.132601,-0.160169 -0.2033898,-0.355932 -0.070789,-0.195762 -0.1715073,-0.355932 -0.2238192,-0.355932 -0.052312,0 -0.087126,-0.03432 -0.077365,-0.07627 0.031169,-0.133955 -0.249885,-0.635593 -0.3561045,-0.635593 -0.056276,0 -0.077488,-0.02483 -0.047138,-0.05518 0.03035,-0.03035 -0.3700875,-0.815742 -0.8898621,-1.745314 L 0.13891978,12.495813 0.43565244,11.970031 c 0.16320296,-0.28918 0.2661833,-0.556331 0.2288452,-0.593669 -0.0373381,-0.03734 -0.0156728,-0.06789 0.0481451,-0.06789 0.0638179,0 0.18702697,-0.137289 0.27379798,-0.305085 0.086771,-0.167797 0.13192612,-0.305085 0.10034492,-0.305085 -0.031581,0 0.035888,-0.100154 0.1499308,-0.222565 C 1.4254986,10.273106 1.486282,10.134313 1.4186441,10.060325 1.404661,10.045029 1.4961864,9.9219935 1.6220339,9.7869121 1.8297589,9.5639454 1.8946107,9.4241431 1.8254237,9.3484607 1.8114407,9.3331649 1.9029661,9.2101291 2.0288136,9.0750477 2.2365385,8.852081 2.3013904,8.7122786 2.2322034,8.6365963 2.2182203,8.6213005 2.3097458,8.4982646 2.4355932,8.3631833 2.6499507,8.1330974 2.7054607,8.0091606 2.6764496,7.8254237 c -0.00662,-0.041949 0.026374,-0.076271 0.073328,-0.076271 0.09368,0 0.3676013,-0.513341 0.3391553,-0.6355932 -0.00976,-0.041949 0.02067,-0.076271 0.067624,-0.076271 0.09368,0 0.3676013,-0.513341 0.3391553,-0.6355932 -0.00976,-0.041949 0.02067,-0.076271 0.067624,-0.076271 0.09368,0 0.3676012,-0.5133411 0.3391552,-0.6355932 -0.00976,-0.041949 0.02067,-0.076271 0.067624,-0.076271 0.09368,0 0.3676013,-0.5133411 0.3391553,-0.6355932 -0.00976,-0.041949 0.02067,-0.076271 0.067624,-0.076271 0.09368,0 0.3676013,-0.5133411 0.3391553,-0.6355932 -0.00976,-0.041949 0.02067,-0.076271 0.067624,-0.076271 0.09368,0 0.3676013,-0.5133411 0.3391553,-0.6355932 -0.00976,-0.041949 0.02067,-0.076271 0.067624,-0.076271 0.09368,0 0.3676013,-0.513341 0.3391553,-0.6355932 -0.00976,-0.041949 0.02067,-0.076271 0.067624,-0.076271 0.09368,0 0.3676013,-0.513341 0.3391553,-0.6355932 -0.00976,-0.041949 2.6995824,-0.076271 6.0207629,-0.076271 l 6.03851,0 0.12637,0.3050847 c 0.0695,0.1677966 0.157388,0.3050848 0.195298,0.3050848 0.03791,0 0.126846,0.1601695 0.197635,0.3559322 0.07079,0.1957627 0.162314,0.3559322 0.20339,0.3559322 0.04107,0 0.132601,0.1601695 0.203389,0.3559322 0.07079,0.1957627 0.162315,0.3559322 0.20339,0.3559322 0.04108,0 0.132601,0.1601695 0.20339,0.3559322 C 19.399315,4.6398305 19.49084,4.8 19.531916,4.8 c 0.04108,0 0.132601,0.1601695 0.20339,0.3559322 0.07079,0.1957627 0.162314,0.3559322 0.20339,0.3559322 0.04107,0 0.132601,0.1601695 0.203389,0.3559322 0.07079,0.1957627 0.162315,0.3559322 0.20339,0.3559322 0.04108,0 0.132601,0.1601695 0.20339,0.3559322 0.07079,0.1957627 0.162314,0.3559322 0.20339,0.3559322 0.04108,0 0.132601,0.1601695 0.20339,0.3559322 0.07079,0.1957627 0.162314,0.3559322 0.20339,0.3559322 0.04107,0 0.132601,0.1601695 0.203389,0.3559322 0.07079,0.1957627 0.162315,0.3559322 0.20339,0.3559322 0.04108,0 0.132601,0.1601695 0.20339,0.3559322 0.07079,0.1957627 0.162314,0.3559322 0.20339,0.3559322 0.04107,0 0.132601,0.1601695 0.20339,0.3559322 0.07079,0.1957628 0.162314,0.3559322 0.20339,0.3559322 0.04108,0 0.132601,0.1601695 0.203389,0.3559322 0.07079,0.195763 0.171508,0.355932 0.22382,0.355932 0.05231,0 0.08713,0.03432 0.07737,0.07627 -0.02845,0.122253 0.245475,0.635594 0.339156,0.635594 0.04695,0 0.07738,0.03432 0.06762,0.07627 -0.02845,0.122252 0.245475,0.635593 0.339155,0.635593 0.04695,0 0.07811,0.03432 0.06923,0.07627 -0.0089,0.04195 0.01984,0.158817 0.06383,0.259707 0.05012,0.114952 0.0087,0.341975 -0.110975,0.608099 -0.105019,0.233565 -0.179503,0.459918 -0.16552,0.503006 0.01398,0.04309 -0.01916,0.07834 -0.07366,0.07834 -0.0545,0 -0.170078,0.137288 -0.256849,0.305085 -0.08677,0.167796 -0.131926,0.305084 -0.100344,0.305084 0.03158,0 -0.03589,0.100155 -0.149931,0.222566 -0.194729,0.209015 -0.24795,0.333877 -0.219395,0.514722 0.0066,0.04195 -0.02637,0.07627 -0.07333,0.07627 -0.09368,0 -0.367601,0.51334 -0.339155,0.635593 0.0098,0.04195 -0.02067,0.07627 -0.06762,0.07627 -0.09368,0 -0.367602,0.513341 -0.339156,0.635593 0.0098,0.04195 -0.02067,0.07627 -0.06762,0.07627 -0.09368,0 -0.367602,0.513341 -0.339156,0.635594 0.0098,0.04195 -0.02505,0.07627 -0.07737,0.07627 -0.05231,0 -0.153031,0.160169 -0.223819,0.355932 -0.07079,0.195763 -0.162315,0.355932 -0.20339,0.355932 -0.04108,0 -0.132601,0.16017 -0.20339,0.355932 -0.07079,0.195763 -0.162314,0.355933 -0.20339,0.355933 -0.04108,0 -0.132601,0.160169 -0.20339,0.355932 -0.07079,0.195763 -0.162314,0.355932 -0.20339,0.355932 -0.04108,0 -0.132601,0.16017 -0.203389,0.355932 -0.07079,0.195763 -0.162315,0.355932 -0.20339,0.355932 -0.04108,0 -0.132601,0.16017 -0.20339,0.355933 -0.07079,0.195762 -0.162314,0.355932 -0.20339,0.355932 -0.04107,0 -0.132601,0.160169 -0.20339,0.355932 -0.07079,0.195763 -0.162314,0.355932 -0.20339,0.355932 -0.04107,0 -0.132601,0.16017 -0.203389,0.355932 -0.07079,0.195763 -0.159724,0.355933 -0.197635,0.355933 -0.03791,0 -0.129751,0.148728 -0.20409,0.330508 -0.07434,0.18178 -0.191029,0.387712 -0.259311,0.457627 -0.09653,0.09884 -1.449878,0.127119 -6.082746,0.127119 l -5.9585965,0 -0.1158382,-0.254237 z M 16.945278,20.91138 c 0.08789,-0.08789 0.159807,-0.225181 0.159807,-0.305085 0,-0.0799 0.0428,-0.145278 0.09511,-0.145278 0.05231,0 0.15303,-0.16017 0.223819,-0.355932 0.07079,-0.195763 0.162315,-0.355932 0.20339,-0.355932 0.04108,0 0.132601,-0.16017 0.20339,-0.355933 0.07079,-0.195762 0.162314,-0.355932 0.20339,-0.355932 0.04108,0 0.132601,-0.160169 0.20339,-0.355932 0.07079,-0.195763 0.162314,-0.355932 0.203389,-0.355932 0.04108,0 0.132601,-0.16017 0.20339,-0.355932 0.07079,-0.195763 0.162314,-0.355933 0.20339,-0.355933 0.04108,0 0.132601,-0.160169 0.20339,-0.355932 0.07079,-0.195763 0.162314,-0.355932 0.20339,-0.355932 0.04107,0 0.132601,-0.16017 0.20339,-0.355932 0.07079,-0.195763 0.159724,-0.355932 0.197634,-0.355932 0.03791,0 0.129086,-0.148729 0.202611,-0.330509 0.07353,-0.18178 0.164573,-0.35339 0.202327,-0.381356 0.03776,-0.02797 0.156852,-0.233898 0.264658,-0.457627 0.107806,-0.223729 0.462265,-0.880538 0.787687,-1.459575 0.503072,-0.895142 0.575079,-1.085499 0.480855,-1.271187 -0.06095,-0.120115 -0.292506,-0.53873 -0.514569,-0.930255 -0.222063,-0.391525 -0.47983,-0.883475 -0.572815,-1.09322 -0.09299,-0.209746 -0.200666,-0.3813562 -0.239288,-0.3813562 -0.03862,0 -0.128142,-0.1601695 -0.198931,-0.3559322 -0.07079,-0.1957628 -0.162314,-0.3559322 -0.20339,-0.3559322 -0.04107,0 -0.132601,-0.1601695 -0.20339,-0.3559322 -0.07079,-0.1957628 -0.162314,-0.3559323 -0.203389,-0.3559323 -0.04108,0 -0.132601,-0.1601694 -0.20339,-0.3559322 -0.07079,-0.1957627 -0.162314,-0.3559322 -0.20339,-0.3559322 -0.04108,0 -0.132601,-0.1601694 -0.20339,-0.3559322 -0.07079,-0.1957627 -0.162314,-0.3559322 -0.20339,-0.3559322 -0.04107,0 -0.132601,-0.1601695 -0.20339,-0.3559322 -0.07079,-0.1957627 -0.162314,-0.3559322 -0.203389,-0.3559322 -0.04108,0 -0.132601,-0.1601695 -0.20339,-0.3559322 -0.07079,-0.1957627 -0.162314,-0.3559322 -0.20339,-0.3559322 -0.04108,0 -0.132601,-0.1601695 -0.20339,-0.3559322 -0.07079,-0.1957627 -0.166546,-0.3559322 -0.212794,-0.3559322 -0.04625,0 -0.110684,-0.1059678 -0.143191,-0.2354839 -0.03251,-0.1295162 -0.146185,-0.3358914 -0.25262,-0.4586115 L 16.825283,3.984472 11.905862,4.0108801 c -3.8701026,0.020775 -4.9139984,0.053523 -4.8939976,0.1535267 0.013983,0.069915 -0.012993,0.1271186 -0.059948,0.1271186 -0.09368,0 -0.3676013,0.5133411 -0.3391553,0.6355932 0.00976,0.041949 -0.02067,0.076271 -0.067624,0.076271 -0.09368,0 -0.3676013,0.5133411 -0.3391553,0.6355933 0.00976,0.041949 -0.02067,0.076271 -0.067624,0.076271 -0.09368,0 -0.3676013,0.5133411 -0.3391553,0.6355933 0.00976,0.041949 -0.02067,0.076271 -0.067624,0.076271 -0.09368,0 -0.3676013,0.5133411 -0.3391553,0.6355933 0.00976,0.041949 -0.02067,0.076271 -0.067624,0.076271 -0.09368,0 -0.3676013,0.513341 -0.3391553,0.6355932 0.00976,0.041949 -0.02067,0.076271 -0.067624,0.076271 -0.09368,0 -0.3676013,0.513341 -0.3391553,0.6355932 0.00976,0.041949 -0.02067,0.076271 -0.067624,0.076271 -0.09368,0 -0.3676013,0.513341 -0.3391553,0.6355932 0.00976,0.041949 -0.025054,0.076271 -0.077365,0.076271 -0.052312,0 -0.1530304,0.1601695 -0.2238191,0.3559322 -0.070789,0.1957627 -0.1623143,0.3559322 -0.2033898,0.3559322 -0.041076,0 -0.1326012,0.1601693 -0.2033899,0.3559323 -0.070789,0.195763 -0.1623142,0.355932 -0.2033898,0.355932 -0.041076,0 -0.1326011,0.16017 -0.2033898,0.355932 -0.070789,0.195763 -0.1623143,0.355932 -0.2033899,0.355932 -0.041076,0 -0.1326011,0.16017 -0.2033898,0.355933 -0.070789,0.195762 -0.1621925,0.355932 -0.2031194,0.355932 -0.040927,0 -0.1017927,0.08627 -0.1352571,0.191704 -0.065278,0.205673 0.1257196,0.72355 0.2668519,0.72355 0.046954,0 0.077385,0.03432 0.067624,0.07627 -0.028446,0.122253 0.245475,0.635594 0.3391553,0.635594 0.046954,0 0.077385,0.03432 0.067624,0.07627 -0.028446,0.122252 0.245475,0.635593 0.3391552,0.635593 0.046954,0 0.077385,0.03432 0.067624,0.07627 -0.028446,0.122253 0.2454751,0.635593 0.3391553,0.635593 0.046954,0 0.077385,0.03432 0.067624,0.07627 -0.028446,0.122252 0.245475,0.635593 0.3391553,0.635593 0.046954,0 0.077385,0.03432 0.067624,0.07627 -0.028446,0.122252 0.2454751,0.635593 0.3391553,0.635593 0.046954,0 0.077385,0.03432 0.067624,0.07627 -0.028446,0.122253 0.2454751,0.635594 0.3391553,0.635594 0.046954,0 0.077385,0.03432 0.067624,0.07627 -0.028446,0.122252 0.245475,0.635593 0.3391553,0.635593 0.046954,0 0.077385,0.03432 0.067624,0.07627 -0.028446,0.122253 0.2454751,0.635593 0.3391553,0.635593 0.046954,0 0.077385,0.03432 0.067624,0.07627 -0.028446,0.122252 0.245475,0.635593 0.3391553,0.635593 0.046954,0 0.077385,0.03432 0.067624,0.07627 -0.028446,0.122253 0.2454751,0.635593 0.3391553,0.635593 0.046954,0 0.077385,0.03432 0.067624,0.07627 -0.029428,0.126474 0.2470474,0.635594 0.345157,0.635594 0.050255,0 0.06309,0.04576 0.028522,0.101695 -0.041567,0.06726 1.589743,0.101694 4.8172424,0.101694 4.300856,0 4.899062,-0.01897 5.0399,-0.159806 z"
     id="path4160"
     inkscape:connector-curvature="0" />
</svg>
